<svg width="88" height="85" viewBox="0 0 88 85" fill="none" xmlns="http://www.w3.org/2000/svg">
<g filter="url(#filter0_i_44_384)">
<path d="M75.1497 27.4797C75.2302 27.0243 75.2722 26.5557 75.2722 26.0775C75.2722 21.604 71.5989 17.9775 67.0678 17.9775C63.6992 17.9775 60.8048 19.9818 59.5413 22.8483C58.5177 21.9758 57.1894 21.449 55.7379 21.449C52.5013 21.449 49.8776 24.0681 49.8776 27.299C49.8776 27.4789 49.8857 27.6569 49.9016 27.8327C48.3449 28.5855 47.273 30.1651 47.273 31.9918C47.273 34.5481 49.372 36.6204 51.9612 36.6204H74.1001C76.6893 36.6204 78.7883 34.5481 78.7883 31.9918C78.7883 29.7918 77.2336 27.9502 75.1497 27.4797Z" fill="url(#paint0_linear_44_384)"/>
</g>
<g filter="url(#filter1_f_44_384)">
<rect x="17.0893" y="17.0894" width="53.2653" height="50.1582" rx="20.8623" fill="#FFEF9A"/>
</g>
<g filter="url(#filter2_i_44_384)">
<path d="M67.2475 42.1689C67.2475 55.2842 56.7148 65.9163 43.722 65.9163C30.7292 65.9163 20.1964 55.2842 20.1964 42.1689C20.1964 29.0535 30.7292 18.4214 43.722 18.4214C56.7148 18.4214 67.2475 29.0535 67.2475 42.1689Z" fill="url(#paint1_linear_44_384)"/>
</g>
<g filter="url(#filter3_i_44_384)">
<path d="M40.0833 60.3259C40.1638 59.8704 40.2058 59.4019 40.2058 58.9237C40.2058 54.4502 36.5325 50.8237 32.0014 50.8237C28.6328 50.8237 25.7384 52.828 24.4749 55.6945C23.4513 54.822 22.123 54.2952 20.6715 54.2952C17.4349 54.2952 14.8112 56.9143 14.8112 60.1452C14.8112 60.3251 14.8193 60.5031 14.8353 60.6789C13.2785 61.4317 12.2066 63.0113 12.2066 64.838C12.2066 67.3943 14.3056 69.4666 16.8949 69.4666H39.0337C41.623 69.4666 43.722 67.3943 43.722 64.838C43.722 62.638 42.1672 60.7964 40.0833 60.3259Z" fill="url(#paint2_linear_44_384)"/>
</g>
<defs>
<filter id="filter0_i_44_384" x="47.273" y="17.9775" width="31.5153" height="20.8625" filterUnits="userSpaceOnUse" color-interpolation-filters="sRGB">
<feFlood flood-opacity="0" result="BackgroundImageFix"/>
<feBlend mode="normal" in="SourceGraphic" in2="BackgroundImageFix" result="shape"/>
<feColorMatrix in="SourceAlpha" type="matrix" values="0 0 0 0 0 0 0 0 0 0 0 0 0 0 0 0 0 0 127 0" result="hardAlpha"/>
<feOffset dy="2.44133"/>
<feGaussianBlur stdDeviation="1.10969"/>
<feComposite in2="hardAlpha" operator="arithmetic" k2="-1" k3="1"/>
<feColorMatrix type="matrix" values="0 0 0 0 1 0 0 0 0 1 0 0 0 0 1 0 0 0 1 0"/>
<feBlend mode="normal" in2="shape" result="effect1_innerShadow_44_384"/>
</filter>
<filter id="filter1_f_44_384" x="-3.8147e-06" y="5.72205e-05" width="87.4439" height="84.3368" filterUnits="userSpaceOnUse" color-interpolation-filters="sRGB">
<feFlood flood-opacity="0" result="BackgroundImageFix"/>
<feBlend mode="normal" in="SourceGraphic" in2="BackgroundImageFix" result="shape"/>
<feGaussianBlur stdDeviation="8.54465" result="effect1_foregroundBlur_44_384"/>
</filter>
<filter id="filter2_i_44_384" x="20.1964" y="18.4214" width="47.0511" height="48.6048" filterUnits="userSpaceOnUse" color-interpolation-filters="sRGB">
<feFlood flood-opacity="0" result="BackgroundImageFix"/>
<feBlend mode="normal" in="SourceGraphic" in2="BackgroundImageFix" result="shape"/>
<feColorMatrix in="SourceAlpha" type="matrix" values="0 0 0 0 0 0 0 0 0 0 0 0 0 0 0 0 0 0 127 0" result="hardAlpha"/>
<feOffset dy="1.10969"/>
<feGaussianBlur stdDeviation="1.99745"/>
<feComposite in2="hardAlpha" operator="arithmetic" k2="-1" k3="1"/>
<feColorMatrix type="matrix" values="0 0 0 0 1 0 0 0 0 1 0 0 0 0 1 0 0 0 0.81 0"/>
<feBlend mode="normal" in2="shape" result="effect1_innerShadow_44_384"/>
</filter>
<filter id="filter3_i_44_384" x="12.2066" y="50.8237" width="31.5153" height="20.8625" filterUnits="userSpaceOnUse" color-interpolation-filters="sRGB">
<feFlood flood-opacity="0" result="BackgroundImageFix"/>
<feBlend mode="normal" in="SourceGraphic" in2="BackgroundImageFix" result="shape"/>
<feColorMatrix in="SourceAlpha" type="matrix" values="0 0 0 0 0 0 0 0 0 0 0 0 0 0 0 0 0 0 127 0" result="hardAlpha"/>
<feOffset dy="2.44133"/>
<feGaussianBlur stdDeviation="1.10969"/>
<feComposite in2="hardAlpha" operator="arithmetic" k2="-1" k3="1"/>
<feColorMatrix type="matrix" values="0 0 0 0 1 0 0 0 0 1 0 0 0 0 1 0 0 0 1 0"/>
<feBlend mode="normal" in2="shape" result="effect1_innerShadow_44_384"/>
</filter>
<linearGradient id="paint0_linear_44_384" x1="49.2775" y1="34.9559" x2="80.9907" y2="11.1566" gradientUnits="userSpaceOnUse">
<stop stop-color="white"/>
<stop offset="1" stop-color="white" stop-opacity="0.58"/>
</linearGradient>
<linearGradient id="paint1_linear_44_384" x1="40.1485" y1="55.0947" x2="59.7805" y2="20.9848" gradientUnits="userSpaceOnUse">
<stop stop-color="#FF9900"/>
<stop offset="1" stop-color="#FFEE94"/>
</linearGradient>
<linearGradient id="paint2_linear_44_384" x1="14.2111" y1="67.8021" x2="45.9243" y2="44.0028" gradientUnits="userSpaceOnUse">
<stop stop-color="white"/>
<stop offset="1" stop-color="white" stop-opacity="0.58"/>
</linearGradient>
</defs>
</svg>
